<svg width="20" height="20" viewBox="0 0 20 20" fill="none" xmlns="http://www.w3.org/2000/svg">
<g clip-path="url(#clip0_1_90)">
<path d="M7.08332 15.8333H6.66666C3.33332 15.8333 1.66666 15 1.66666 10.8333V6.66666C1.66666 3.33332 3.33332 1.66666 6.66666 1.66666H13.3333C16.6667 1.66666 18.3333 3.33332 18.3333 6.66666V10.8333C18.3333 14.1667 16.6667 15.8333 13.3333 15.8333H12.9167C12.6583 15.8333 12.4083 15.9583 12.25 16.1667L11 17.8333C10.45 18.5667 9.54999 18.5667 8.99999 17.8333L7.74999 16.1667C7.61666 15.9833 7.30832 15.8333 7.08332 15.8333Z" stroke="#292D32" stroke-width="2" stroke-miterlimit="10" stroke-linecap="round" stroke-linejoin="round"/>
<path d="M5.83331 6.66666H14.1666" stroke="#292D32" stroke-width="2" stroke-linecap="round" stroke-linejoin="round"/>
<path d="M5.83331 10.8333H10.8333" stroke="#292D32" stroke-width="2" stroke-linecap="round" stroke-linejoin="round"/>
</g>
<defs>
<clipPath id="clip0_1_90">
<rect width="20" height="20" fill="white"/>
</clipPath>
</defs>
</svg>
