<svg width="20" height="20" viewBox="0 0 20 20" fill="none" xmlns="http://www.w3.org/2000/svg">
<path d="M13.4916 1.66666H6.50829C3.47496 1.66666 1.66663 3.475 1.66663 6.50833V13.4833C1.66663 16.525 3.47496 18.3333 6.50829 18.3333H13.4833C16.5166 18.3333 18.325 16.525 18.325 13.4917V6.50833C18.3333 3.475 16.525 1.66666 13.4916 1.66666ZM8.25829 13.4917C8.25829 14.025 7.82496 14.4583 7.28329 14.4583C6.74996 14.4583 6.31663 14.025 6.31663 13.4917V10.775C6.31663 10.2417 6.74996 9.80833 7.28329 9.80833C7.82496 9.80833 8.25829 10.2417 8.25829 10.775V13.4917ZM13.6833 13.4917C13.6833 14.025 13.25 14.4583 12.7166 14.4583C12.175 14.4583 11.7416 14.025 11.7416 13.4917V6.50833C11.7416 5.975 12.175 5.54166 12.7166 5.54166C13.25 5.54166 13.6833 5.975 13.6833 6.50833V13.4917Z" fill="#000000"/>
</svg>
