<svg width="20" height="20" viewBox="0 0 20 20" fill="none" xmlns="http://www.w3.org/2000/svg">
<g clip-path="url(#clip0_1_85)">
<path d="M7.22656 11.9415C7.22656 13.0165 8.05156 13.8832 9.07658 13.8832H11.1682C12.0599 13.8832 12.7849 13.1248 12.7849 12.1915C12.7849 11.1748 12.3432 10.8165 11.6849 10.5832L8.32655 9.41651C7.66822 9.18318 7.22656 8.82485 7.22656 7.80821C7.22656 6.87488 7.95155 6.11655 8.84325 6.11655H10.9349C11.9599 6.11655 12.7849 6.98321 12.7849 8.05821" stroke="#292D32" stroke-width="2" stroke-linecap="round" stroke-linejoin="round"/>
<path d="M10 5V15" stroke="#292D32" stroke-width="2" stroke-linecap="round" stroke-linejoin="round"/>
<path d="M10 18.3333C14.6024 18.3333 18.3334 14.6023 18.3334 9.99999C18.3334 5.39761 14.6024 1.66666 10 1.66666C5.39765 1.66666 1.66669 5.39761 1.66669 9.99999C1.66669 14.6023 5.39765 18.3333 10 18.3333Z" stroke="#292D32" stroke-width="2" stroke-linecap="round" stroke-linejoin="round"/>
</g>
<defs>
<clipPath id="clip0_1_85">
<rect width="20" height="20" fill="white"/>
</clipPath>
</defs>
</svg>
