<svg width="20" height="20" viewBox="0 0 20 20" fill="none" xmlns="http://www.w3.org/2000/svg">
<path d="M8.33337 12.9167C7.99171 12.9167 7.70837 13.2 7.70837 13.5417V14.7917C7.70837 15.1334 7.99171 15.4167 8.33337 15.4167C8.67504 15.4167 8.95837 15.1334 8.95837 14.7917V13.5417C8.95837 13.2 8.67504 12.9167 8.33337 12.9167Z" fill="white"/>
<path d="M18.3333 17.7083H17.5V8.31666C17.5 7.8 17.2666 7.31666 16.8583 7L11.025 2.46666C10.425 1.99166 9.57496 1.99166 8.97496 2.46666L3.14163 7C2.73329 7.31666 2.49996 7.8 2.49996 8.30833L2.45829 17.7083H1.66663C1.32496 17.7083 1.04163 17.9833 1.04163 18.3333C1.04163 18.675 1.32496 18.9583 1.66663 18.9583H18.3333C18.675 18.9583 18.9583 18.675 18.9583 18.3333C18.9583 17.9833 18.675 17.7083 18.3333 17.7083ZM8.74996 5.625H11.25C11.5916 5.625 11.875 5.90833 11.875 6.25C11.875 6.59166 11.5916 6.875 11.25 6.875H8.74996C8.40829 6.875 8.12496 6.59166 8.12496 6.25C8.12496 5.90833 8.40829 5.625 8.74996 5.625ZM14.1666 17.7083H5.83329V10.4167C5.83329 9.725 6.39163 9.16666 7.08329 9.16666H12.9166C13.6083 9.16666 14.1666 9.725 14.1666 10.4167V17.7083Z" fill="#000000"/>
</svg>
