<svg width="20" height="20" viewBox="0 0 20 20" fill="none" xmlns="http://www.w3.org/2000/svg">
<path d="M14.6084 6.47501C14.55 6.46667 14.4917 6.46667 14.4334 6.47501C13.1417 6.43334 12.1167 5.37501 12.1167 4.07501C12.1167 2.75001 13.1917 1.66667 14.525 1.66667C15.85 1.66667 16.9334 2.74167 16.9334 4.07501C16.925 5.37501 15.9 6.43334 14.6084 6.47501Z" fill="#000000"/>
<path d="M17.325 12.25C16.3917 12.875 15.0834 13.1083 13.875 12.95C14.1917 12.2667 14.3584 11.5083 14.3667 10.7083C14.3667 9.875 14.1834 9.08333 13.8334 8.39167C15.0667 8.225 16.375 8.45833 17.3167 9.08333C18.6334 9.95 18.6334 11.375 17.325 12.25Z" fill="#000000"/>
<path d="M5.36672 6.47501C5.42505 6.46667 5.48338 6.46667 5.54172 6.47501C6.83338 6.43334 7.85838 5.37501 7.85838 4.07501C7.85838 2.74167 6.78338 1.66667 5.45005 1.66667C4.12505 1.66667 3.05005 2.74167 3.05005 4.07501C3.05005 5.37501 4.07505 6.43334 5.36672 6.47501Z" fill="#000000"/>
<path d="M5.45831 10.7083C5.45831 11.5167 5.63331 12.2833 5.94998 12.975C4.77498 13.1 3.54998 12.85 2.64998 12.2583C1.33331 11.3833 1.33331 9.95834 2.64998 9.08334C3.54164 8.48334 4.79998 8.24167 5.98331 8.37501C5.64164 9.07501 5.45831 9.86667 5.45831 10.7083Z" fill="#000000"/>
<path d="M10.1 13.225C10.0333 13.2167 9.95833 13.2167 9.88333 13.225C8.35 13.175 7.125 11.9167 7.125 10.3667C7.13333 8.78333 8.40833 7.5 10 7.5C11.5833 7.5 12.8667 8.78333 12.8667 10.3667C12.8583 11.9167 11.6417 13.175 10.1 13.225Z" fill="#000000"/>
<path d="M7.39163 14.95C6.13329 15.7917 6.13329 17.175 7.39163 18.0083C8.82496 18.9667 11.175 18.9667 12.6083 18.0083C13.8666 17.1667 13.8666 15.7833 12.6083 14.95C11.1833 13.9917 8.83329 13.9917 7.39163 14.95Z" fill="#000000"/>
</svg>
